<?xml version="1.0" encoding="UTF-8"?>
<svg xmlns="http://www.w3.org/2000/svg" id="Layer_1" data-name="Layer 1" viewBox="0 0 24 24">
  <path d="m23.263,13.885c.981.982.981,2.581,0,3.562l-5.37,5.37c-.787.787-1.821,1.18-2.855,1.18s-2.067-.393-2.854-1.18c-.763-.762-1.183-1.776-1.183-2.855s.42-2.092,1.183-2.855l5.012-5.012,1.414,1.414-5.012,5.012c-.385.385-.597.897-.597,1.441s.212,1.056.597,1.441c.796.794,2.088.793,2.882,0l5.37-5.37c.202-.202.202-.532,0-.734-.195-.195-.537-.196-.734,0l-5.37,5.37-1.414-1.414,5.37-5.37c.951-.95,2.609-.952,3.562,0Zm.737-10.885v8.93c-.606-.401-1.293-.639-2-.718v-7.142l-6.464,6.465c-.945.944-2.201,1.464-3.536,1.464s-2.591-.52-3.536-1.464L2,4.071v12.929h7.78c-.35.618-.584,1.293-.697,2H0V3C0,1.346,1.346,0,3,0h18c1.654,0,3,1.346,3,3Zm-2.798-.959c-.067-.014-.13-.041-.202-.041H3c-.071,0-.134.026-.202.041l7.08,7.081c.567.566,1.344.849,2.122.85.777,0,1.555-.283,2.122-.85l7.08-7.081Z"/>
</svg>
